<?xml version="1.0" encoding="UTF-8" standalone="no"?>
<!-- Created with Inkscape (http://www.inkscape.org/) -->

<svg
   width="200mm"
   height="200mm"
   viewBox="0 0 200 200"
   version="1.1"
   id="svg1"
   xml:space="preserve"
   inkscape:version="1.4 (86a8ad7, 2024-10-11)"
   sodipodi:docname="tadsnewlogos.svg"
   inkscape:export-filename="tadsnewlogos-full.png"
   inkscape:export-xdpi="254"
   inkscape:export-ydpi="254"
   xmlns:inkscape="http://www.inkscape.org/namespaces/inkscape"
   xmlns:sodipodi="http://sodipodi.sourceforge.net/DTD/sodipodi-0.dtd"
   xmlns="http://www.w3.org/2000/svg"
   xmlns:svg="http://www.w3.org/2000/svg"><sodipodi:namedview
     id="namedview1"
     pagecolor="#ffffff"
     bordercolor="#000000"
     borderopacity="0.25"
     inkscape:showpageshadow="2"
     inkscape:pageopacity="0.0"
     inkscape:pagecheckerboard="0"
     inkscape:deskcolor="#d1d1d1"
     inkscape:document-units="mm"
     inkscape:zoom="0.9214117"
     inkscape:cx="461.7914"
     inkscape:cy="345.66525"
     inkscape:window-width="1920"
     inkscape:window-height="1051"
     inkscape:window-x="-9"
     inkscape:window-y="-9"
     inkscape:window-maximized="1"
     inkscape:current-layer="layer1" /><defs
     id="defs1"><linearGradient
       id="swatch4"
       inkscape:swatch="solid"><stop
         style="stop-color:#fafafa;stop-opacity:1;"
         offset="0"
         id="stop4" /></linearGradient></defs><g
     inkscape:label="Layer 1"
     inkscape:groupmode="layer"
     id="layer1"><path
       id="text5"
       style="font-size:200.631px;font-family:Gabriola;-inkscape-font-specification:Gabriola;fill:#1f2a38;stroke:#000000;stroke-width:0.126599"
       d="m 132.12588,21.990926 c -1.04188,0.194695 -2.07247,0.365235 -3.09119,0.511255 -0.99557,0.121685 -2.08357,0.230968 -3.26436,0.328315 -1.15764,0.09735 -2.44257,0.170328 -3.85487,0.219001 -1.41233,0.04868 -3.05612,0.08535 -4.9315,0.109689 -1.87536,0.02433 -4.01715,0.04854 -6.42503,0.07287 h -8.33483 c -1.87538,0 -3.820245,-0.03631 -5.834536,-0.109313 -1.99114,-0.07301 -3.936006,-0.145994 -5.834534,-0.219001 -1.898527,-0.07301 -3.704638,-0.145987 -5.417942,-0.219002 -1.713308,-0.07301 -3.229741,-0.109689 -4.549449,-0.109689 -2.08375,0 -3.762132,0.255623 -5.035535,0.766694 -1.250251,0.511073 -2.211276,1.314238 -2.882707,2.409393 -0.648277,1.095154 -1.07671,2.49427 -1.285085,4.197845 -0.208375,1.679238 -0.312537,3.699254 -0.312537,6.059921 0,2.246462 2.359982,7.283278 2.511193,10.252881 -1.439676,3.083497 -2.97292,6.458207 -4.603542,10.137934 -3.310847,7.447054 -7.084637,16.062188 -11.321594,25.845571 -1.481779,0.02435 -2.222697,0.523105 -2.222697,1.496574 0,0.535413 0.242921,1.20471 0.729129,2.007824 -2.315278,5.281084 -4.723175,10.805685 -7.223675,16.573502 -2.477342,5.76781 -5.104974,11.81539 -7.883303,18.14295 l 0.486084,0.36513 c 0.486207,0.0243 1.030212,0.0364 1.632182,0.0364 0.578816,0.0243 1.065037,0.0364 1.458636,0.0364 0.694579,0 1.354526,-0.0242 1.979656,-0.0729 0.625121,-0.0242 1.20409,-0.15819 1.73661,-0.40156 0.532511,-0.21902 1.030131,-0.58394 1.493194,-1.09501 0.463055,-0.51108 0.879703,-1.22916 1.250148,-2.15395 0.300982,-0.80312 0.625253,-1.69136 0.972545,-2.66484 0.347292,-0.9978 0.752536,-2.17797 1.215591,-3.54083 0.463056,-1.36286 0.99565,-2.95709 1.597623,-4.78235 0.625124,-1.84961 1.354262,-4.01558 2.187762,-6.497935 0.532514,-1.606223 1.157488,-3.455702 1.875224,-5.548663 0.740888,-2.09296 1.563157,-4.392802 2.466116,-6.899489 4.468486,-0.267702 8.786276,-0.474547 12.953776,-0.620564 3.020986,-0.122799 6.074485,-0.203007 9.1436,-0.262578 -0.158752,1.207297 -0.238911,2.460586 -0.238911,3.760587 0,2.068631 0.231513,3.954411 0.694568,5.657983 0.486209,1.703579 1.134374,3.261128 1.94472,4.672659 0.8335,1.41153 1.817341,2.70137 2.951827,3.86954 1.134485,1.14382 2.361621,2.21471 3.68133,3.21251 0.955621,0.72253 1.952409,1.40208 2.968731,2.06081 -0.0061,0.12087 -0.01156,0.36758 -0.01766,0.47969 -0.162072,3.40716 0.119108,8.06799 -0.06611,10.64769 0.117963,3.01014 -0.05546,5.06684 0.08565,7.53396 l 3.050621,4.31766 5.663611,0.94289 c 2.43103,0.65709 4.76936,1.14375 7.01519,1.46013 1.99405,0.2809 3.9591,0.42979 5.89839,0.46129 -0.22983,1.26259 -0.584,2.44363 -1.08674,3.52693 -0.92611,1.97129 -2.17644,3.62602 -3.75082,4.96455 -1.55124,1.33851 -3.35698,2.34853 -5.41757,3.02996 -2.0606,0.65709 -4.23698,0.98569 -6.5291,0.98569 -2.292128,0 -4.364346,-0.26771 -6.216568,-0.80313 -1.82907,-0.55975 -3.403289,-1.44799 -4.722998,-2.66484 -1.296554,-1.21683 -2.30396,-2.78649 -3.021695,-4.7091 -0.694584,-1.94693 -1.041667,-4.30764 -1.041667,-7.08204 0,-0.5354 0.0114,-1.07085 0.03456,-1.60626 0.02315,-0.53542 0.06953,-1.09506 0.138988,-1.67914 l -3.507782,-0.18256 c -0.231528,4.18592 -0.404881,7.79978 -0.520645,10.84189 -0.09261,3.0421 -0.138989,5.37861 -0.138989,7.00917 0,0.73011 0.428432,1.44819 1.285085,2.15396 0.879805,0.68143 2.07197,1.28948 3.576901,1.82488 1.528083,0.53541 3.299221,0.96157 5.313513,1.27796 2.014291,0.3407 4.167483,0.51088 6.459607,0.51088 1.736459,0 3.62354,-0.18227 5.66099,-0.54732 2.03744,-0.34071 4.07468,-0.91284 6.11213,-1.71595 2.03744,-0.80311 3.99409,-1.86153 5.86946,-3.17571 1.89854,-1.31419 3.57691,-2.92053 5.03554,-4.8188 1.45863,-1.92259 2.61656,-4.17366 3.47322,-6.75336 0.0964,-0.2825 0.18504,-0.57168 0.27084,-0.86323 1.81428,-0.27837 3.57159,-0.67171 5.26656,-1.19043 3.68129,-1.14382 7.03843,-2.75016 10.07145,-4.81878 3.05616,-2.09296 5.76514,-4.59965 8.12672,-7.52006 2.38474,-2.92041 4.39879,-6.16937 6.04264,-9.74687 1.64385,-3.57752 2.89416,-7.43455 3.75082,-11.57179 0.85666,-4.161595 1.2851,-8.506021 1.2851,-13.032657 0,-5.037718 -0.498,-9.478957 -1.49358,-13.324167 -0.99556,-3.845209 -2.39606,-7.167158 -4.20197,-9.965887 -1.78276,-2.823066 -3.92456,-5.171685 -6.42506,-7.045617 -2.50049,-1.898268 -5.25547,-3.407041 -8.26533,-4.526533 -2.98672,-1.143829 -6.18191,-1.946996 -9.58536,-2.409394 -3.38031,-0.486736 -6.87658,-0.730257 -10.48841,-0.730257 -2.59311,0 -5.22074,0.10966 -7.88331,0.328691 -1.80145,0.132882 -3.60298,0.312606 -5.40441,0.513509 0.0862,-3.363806 0.17162,-6.714101 0.24379,-9.900527 0.11576,-4.088578 0.20812,-7.93387 0.27761,-11.535713 4.05173,0.292041 7.68676,0.596442 10.90499,0.91282 3.24139,0.292041 6.05453,0.438004 8.43926,0.438004 2.52365,0 4.42215,-0.426161 5.69555,-1.277948 1.29656,-0.851787 1.94472,-2.080738 1.94472,-3.686966 0,-0.75444 -0.19655,-1.715669 -0.59014,-2.883834 z m -43.689494,5.804483 c 1.41232,0 2.801402,0.0242 4.167417,0.07287 1.366014,0.02433 2.709095,0.06063 4.028803,0.109313 0,5.28108 -0.02319,10.270242 -0.0695,14.96724 -0.04631,4.672661 -0.104092,9.175155 -0.173547,13.507102 -0.06351,3.960168 -0.151741,7.802919 -0.253938,11.580039 -0.05195,0.02783 -0.105995,0.05105 -0.157771,0.07926 -1.113057,0.599613 -2.169746,1.293073 -3.182472,2.059667 -0.662721,-3.485045 -1.34754,-7.143936 -2.075439,-11.142787 -1.203946,-6.765622 -2.535245,-14.37075 -3.993869,-22.81561 -0.740889,-0.340715 -1.43543,-0.572134 -2.083708,-0.693819 -0.648278,-0.121681 -1.308224,-0.182563 -1.979655,-0.182563 -0.463054,0 -0.937489,0.03668 -1.423698,0.109689 -0.486209,0.07301 -0.949611,0.19477 -1.389514,0.365128 -0.439903,0.170357 -0.844772,0.413502 -1.215215,0.729879 -0.370445,0.292041 -0.671526,0.669423 -0.903053,1.131821 -0.516052,1.025167 -1.059548,2.136042 -1.608516,3.263988 0.0034,-1.517244 -1.304461,-2.89197 -1.091628,-4.234281 0.300986,-1.752248 0.729042,-3.188041 1.28471,-4.307533 0.555666,-1.143828 1.238801,-2.019975 2.049148,-2.628395 0.810348,-0.632755 1.724996,-1.095219 2.743719,-1.387261 1.018723,-0.292043 2.141696,-0.462204 3.368793,-0.510877 1.227098,-0.04868 2.546615,-0.07287 3.958933,-0.07287 z m -9.281461,15.644904 h 0.208484 c 0.578819,3.650516 1.169199,7.252287 1.77117,10.805457 0.601973,3.55317 1.192352,6.972677 1.771171,10.258141 0.57882,3.261127 1.14601,6.364134 1.701676,9.308883 0.364545,1.915933 0.690865,3.548801 1.025514,5.24477 -0.408784,0.88725 -0.770902,1.811858 -1.084114,2.775645 -3.280377,0.04471 -6.539552,0.09406 -9.734866,0.156645 -3.727598,0.0487 -7.582735,0.121656 -11.565012,0.219006 2.037444,-5.500113 4.364364,-11.523485 6.980628,-18.070078 2.616264,-6.546591 5.591349,-13.44611 8.925349,-20.698469 z m -4.342843,0.228393 c -0.185005,0.38888 -0.368288,0.773226 -0.556708,1.172767 l 0.358742,-0.874505 z m 42.331538,9.941096 c 5.8808,0 10.85853,0.900349 14.93343,2.701269 4.07488,1.776585 7.37424,4.271166 9.89789,7.48362 2.54682,3.212454 4.37574,7.045271 5.48706,11.4989 1.1345,4.45363 1.70206,9.357711 1.70206,14.711798 0,3.577504 -0.2433,7.069618 -0.72951,10.476761 -0.46305,3.40715 -1.21538,6.61982 -2.25725,9.63758 -1.01872,3.01776 -2.35002,5.79216 -3.99387,8.32319 -1.62069,2.53102 -3.60053,4.7212 -5.93896,6.5708 -2.31528,1.82526 -5.01248,3.24896 -8.09179,4.2711 -0.90976,0.30427 -1.86116,0.5575 -2.84477,0.7712 0.0919,-0.99837 0.15514,-2.02124 0.15514,-3.09833 0,-2.01996 -0.2433,-3.85734 -0.72951,-5.51224 -0.46305,-1.6549 -1.11121,-3.16405 -1.94471,-4.5269 -0.81035,-1.3872 -1.78278,-2.64036 -2.91727,-3.75984 -1.11134,-1.14383 -2.32706,-2.19014 -3.64677,-3.13927 -1.31971,-0.97347 -2.70879,-1.88631 -4.16742,-2.73809 -1.43547,-0.85179 -2.88233,-1.67916 -4.34096,-2.48227 -1.34443,-0.7645 -2.6768,-1.52919 -4.00025,-2.29369 0.0815,-3.007096 0.16269,-5.995229 0.24417,-9.146983 0.13892,-4.477976 0.27805,-8.992196 0.41697,-13.543165 0.10006,-3.295488 0.1873,-6.57747 0.27535,-9.860332 0.40388,-0.02856 0.8087,-0.05485 1.2231,-0.05485 2.13005,0 4.06313,0.316503 5.79959,0.949259 1.75961,0.608418 3.25324,1.53297 4.48033,2.774146 1.25025,1.216838 2.21091,2.75019 2.88234,4.599784 0.69458,1.825259 1.04204,3.942458 1.04204,6.351803 0,0.803108 -0.0349,1.642954 -0.10443,2.51908 l 3.50777,0.182559 c 0.0926,-1.776583 0.17359,-3.45589 0.24305,-5.037783 0.0695,-1.606229 0.11584,-3.078701 0.13898,-4.417225 0.0463,-1.362858 0.0809,-2.567608 0.10406,-3.61409 0.0232,-1.070818 0.0349,-1.959066 0.0349,-2.664832 0,-0.657093 -0.2433,-1.277618 -0.7295,-1.861701 -0.48617,-0.584082 -1.13433,-1.119527 -1.94468,-1.606262 -0.81035,-0.486736 -1.74819,-0.91252 -2.81322,-1.277572 -1.04187,-0.389388 -2.14166,-0.717991 -3.29929,-0.985695 -1.15765,-0.267704 -2.31522,-0.462445 -3.47285,-0.58413 -1.15765,-0.14602 -2.24564,-0.219001 -3.26436,-0.219001 -1.24736,0 -2.47854,0.09357 -3.69673,0.2622 0.0707,-2.344806 0.13155,-4.600168 0.19608,-6.887092 0.18304,-1.818158 0.79262,-2.701118 0.81291,-3.765851 0.31532,-0.121685 5.45864,-0.825539 6.94043,-0.898546 1.48177,-0.07301 2.95183,-0.109313 4.41045,-0.109313 z M 95.978982,73.383806 c -0.08088,2.676757 -0.158669,5.350553 -0.249429,8.037697 -0.0327,0.968026 -0.07233,1.986759 -0.106308,2.964225 -0.486036,-2.280505 -0.985716,-4.71739 -1.499954,-7.323972 -0.08812,-0.446686 -0.18665,-0.975579 -0.276099,-1.432713 0.400969,-0.525919 0.824416,-1.031726 1.297104,-1.49432 0.266162,-0.265302 0.549424,-0.509517 0.834686,-0.750917 z m 7.405488,40.892824 c 0.5859,0.34529 1.18443,0.69074 1.76178,1.03603 0.008,0.004 0.013,0.008 0.0199,0.0124 0.19908,0.39528 0.39585,0.64798 0.58675,0.64798 0.11145,0 0.19891,-0.0492 0.27385,-0.11983 1.0174,0.62099 2.00596,1.26215 2.9398,1.94171 1.22709,0.85179 2.35007,1.76424 3.3688,2.73771 1.04187,0.97347 1.93332,2.04436 2.67422,3.21253 0.76404,1.14382 1.35442,2.40946 1.77116,3.79665 0.32566,1.00889 0.52924,2.09881 0.61382,3.26775 -1.76713,-0.011 -3.56237,-0.10057 -5.39091,-0.28362 -1.92168,-0.21902 -4.02849,-0.64482 -6.32061,-1.27757 0.13892,-1.77659 -2.45101,-4.98587 -2.3121,-7.80893 0.0748,-3.55558 0.048,-5.58596 0.0135,-7.16281 z" /><text
       xml:space="preserve"
       style="font-size:15.24px;font-family:Gabriola;-inkscape-font-specification:Gabriola;text-align:start;writing-mode:lr-tb;direction:ltr;text-anchor:start;fill:#1f2a38;stroke:#000000;stroke-width:0.174"
       x="25.314526"
       y="165.07922"
       id="text1"><tspan
         sodipodi:role="line"
         id="tspan1"
         style="font-size:15.24px;stroke-width:0.174"
         x="25.314526"
         y="165.07922" /></text><text
       xml:space="preserve"
       style="font-style:normal;font-variant:normal;font-weight:bold;font-stretch:normal;font-size:12.585px;font-family:Consolas;-inkscape-font-specification:'Consolas, Bold';font-variant-ligatures:normal;font-variant-caps:normal;font-variant-numeric:normal;font-variant-east-asian:normal;text-align:start;writing-mode:lr-tb;direction:ltr;text-anchor:start;fill:#1f2a38;stroke:#000000;stroke-width:0.0843768"
       x="47.622559"
       y="130.39377"
       id="text2"
       transform="scale(0.75259665,1.328733)"><tspan
         id="tspan2"
         style="font-style:normal;font-variant:normal;font-weight:bold;font-stretch:normal;font-size:12.585px;font-family:Consolas;-inkscape-font-specification:'Consolas, Bold';font-variant-ligatures:normal;font-variant-caps:normal;font-variant-numeric:normal;font-variant-east-asian:normal;stroke-width:0.0843768"
         x="47.622559"
         y="130.39377"
         sodipodi:role="line">The Average Data Scientist</tspan></text><text
       xml:space="preserve"
       style="font-style:italic;font-variant:normal;font-weight:normal;font-stretch:normal;font-size:3.63791px;font-family:Consolas;-inkscape-font-specification:'Consolas, Italic';font-variant-ligatures:normal;font-variant-caps:normal;font-variant-numeric:normal;font-variant-east-asian:normal;text-align:start;writing-mode:lr-tb;direction:ltr;text-anchor:start;fill:#8c5bf5;fill-opacity:1;stroke:#000000;stroke-width:0.0747632"
       x="52.91489"
       y="189.65584"
       id="text3"
       transform="scale(1.0278122,0.97294038)"><tspan
         sodipodi:role="line"
         id="tspan3"
         style="font-style:italic;font-variant:normal;font-weight:normal;font-stretch:normal;font-size:3.63791px;font-family:Consolas;-inkscape-font-specification:'Consolas, Italic';font-variant-ligatures:normal;font-variant-caps:normal;font-variant-numeric:normal;font-variant-east-asian:normal;fill:#8c5bf5;fill-opacity:1;stroke-width:0.0747632"
         x="52.91489"
         y="189.65584">Clarity through data. Confidence through design.</tspan></text></g></svg>
